<svg id="Ebene_1" data-name="Ebene 1" xmlns="http://www.w3.org/2000/svg" viewBox="0 0 103.91 120.61"><defs><style>.cls-1{fill:#fff;}</style></defs><path class="cls-1" d="M46.07,55.76a2.06,2.06,0,0,0-1.45,3.52,2.06,2.06,0,0,0,2.91-2.91A2,2,0,0,0,46.07,55.76Z"/><path class="cls-1" d="M71.6,55.76a2,2,0,0,0-1.46.61,2.07,2.07,0,1,0,2.91,0A2,2,0,0,0,71.6,55.76Z"/><path class="cls-1" d="M90.05,90.15c-.18-1.17-.31-2.34-.47-3.52L86.63,64v0Q85.81,57.73,85,51.47c-.42-3.28-2-4.73-5.22-4.74H74.16c0-2.59,0-5,0-7.4-.14-5.91-2.69-10.49-7.85-13.41a33.62,33.62,0,0,0-5.42-2h-4c-.86.23-1.73.43-2.58.7A15.32,15.32,0,0,0,43.65,39.33c0,2.4,0,4.81,0,7.4H38.18c-3.32,0-4.91,1.34-5.34,4.59-1.73,13.13-3.41,26.27-5.18,39.39-.39,2.84.56,4.77,3.11,6H87C90.06,94.9,90.6,93.71,90.05,90.15ZM48.46,36.53a10.53,10.53,0,0,1,11.37-8.19,10.76,10.76,0,0,1,9.89,10.42c.08,2.59,0,5.19,0,7.88H47.91C48.07,43.19,47.85,39.78,48.46,36.53ZM46.07,63.88a6.06,6.06,0,1,1,6.06-6.06A6.05,6.05,0,0,1,46.07,63.88Zm25.53,0a6.06,6.06,0,1,1,6.06-6.06A6.06,6.06,0,0,1,71.6,63.88Z"/></svg>